<?xml version="1.0" encoding="UTF-8" standalone="no"?>
<!-- Created with Inkscape (http://www.inkscape.org/) -->
<svg xmlns:osb="http://www.openswatchbook.org/uri/2009/osb" xmlns:dc="http://purl.org/dc/elements/1.1/" xmlns:cc="http://creativecommons.org/ns#" xmlns:rdf="http://www.w3.org/1999/02/22-rdf-syntax-ns#" xmlns:svg="http://www.w3.org/2000/svg" xmlns="http://www.w3.org/2000/svg" xmlns:xlink="http://www.w3.org/1999/xlink" xmlns:sodipodi="http://sodipodi.sourceforge.net/DTD/sodipodi-0.dtd" xmlns:inkscape="http://www.inkscape.org/namespaces/inkscape" id="svg2" version="1.1" inkscape:version="0.48.2 r9819" width="308.51608" height="526.59229" sodipodi:docname="bigmac-f2.svg" inkscape:export-filename="C:\Users\Randall\Desktop\themes\my drawings\MLP\random\bigmac-f2.png" inkscape:export-xdpi="1025.3195" inkscape:export-ydpi="1025.3195">
  <sodipodi:namedview pagecolor="#ffffff" bordercolor="#666666" borderopacity="1" objecttolerance="10" gridtolerance="10" guidetolerance="10" inkscape:pageopacity="0" inkscape:pageshadow="2" inkscape:window-width="1600" inkscape:window-height="838" id="namedview4" showgrid="false" inkscape:object-nodes="false" inkscape:snap-smooth-nodes="false" inkscape:snap-nodes="false" inkscape:zoom="5.6568544" inkscape:cx="111.79185" inkscape:cy="78.242654" inkscape:window-x="-8" inkscape:window-y="-8" inkscape:window-maximized="1" inkscape:current-layer="layer4" inkscape:object-paths="true" inkscape:snap-midpoints="false" fit-margin-top="0" fit-margin-left="0" fit-margin-right="0" fit-margin-bottom="0"/>
  <metadata id="metadata8">
    <rdf:RDF>
      <cc:Work rdf:about="">
        <dc:format>image/svg+xml</dc:format>
        <dc:type rdf:resource="http://purl.org/dc/dcmitype/StillImage"/>
        <dc:title/>
        <cc:license rdf:resource="http://creativecommons.org/licenses/by/3.0/"/>
        <dc:creator>
          <cc:Agent>
            <dc:title>sakatagintoki117</dc:title>
          </cc:Agent>
        </dc:creator>
        <dc:subject>
          <rdf:Bag>
            <rdf:li>big macintosh</rdf:li>
          </rdf:Bag>
        </dc:subject>
        <dc:source>http://sakatagintoki117.deviantart.com/</dc:source>
      </cc:Work>
      <cc:License rdf:about="http://creativecommons.org/licenses/by/3.0/">
        <cc:permits rdf:resource="http://creativecommons.org/ns#Reproduction"/>
        <cc:permits rdf:resource="http://creativecommons.org/ns#Distribution"/>
        <cc:requires rdf:resource="http://creativecommons.org/ns#Notice"/>
        <cc:requires rdf:resource="http://creativecommons.org/ns#Attribution"/>
        <cc:permits rdf:resource="http://creativecommons.org/ns#DerivativeWorks"/>
      </cc:License>
    </rdf:RDF>
  </metadata>
  <defs id="defs6">
    <linearGradient inkscape:collect="always" id="linearGradient5990">
      <stop style="stop-color:#277617;stop-opacity:1" offset="0" id="stop5992"/>
      <stop style="stop-color:#5abd45;stop-opacity:1" offset="1" id="stop5994"/>
    </linearGradient>
    <linearGradient id="linearGradient5940" osb:paint="solid">
      <stop style="stop-color:#846530;stop-opacity:1;" offset="0" id="stop5942"/>
    </linearGradient>
    <linearGradient id="linearGradient5932" osb:paint="solid">
      <stop style="stop-color:#f28e46;stop-opacity:1;" offset="0" id="stop5934"/>
    </linearGradient>
    <linearGradient id="linearGradient5841" osb:paint="solid" gradientTransform="matrix(3.9488265,0,0,3.2110107,149.37498,-803.91097)">
      <stop style="stop-color:#a5213a;stop-opacity:1;" offset="0" id="stop5843"/>
    </linearGradient>
    <clipPath clipPathUnits="userSpaceOnUse" id="clipPath5885">
      <rect y="845.58356" x="-3086.0894" height="150.08754" width="190.55458" id="rect5887" style="fill:#000000;fill-opacity:1;fill-rule:nonzero;stroke:none"/>
    </clipPath>
    <linearGradient inkscape:collect="always" xlink:href="#linearGradient5990" id="linearGradient6004" x1="312.6012" y1="134.40999" x2="256.03613" y2="126.80325" gradientUnits="userSpaceOnUse"/>
    <linearGradient inkscape:collect="always" xlink:href="#linearGradient5990" id="linearGradient6014" gradientUnits="userSpaceOnUse" x1="180.78938" y1="128.72346" x2="233.34848" y2="126.04491"/>
  </defs>
  <g inkscape:groupmode="layer" id="layer3" inkscape:label="left legs/ tail" transform="translate(-18.831431,-22.375781)">
    <g id="g3911" transform="translate(-248.99999,0)">
      <path style="fill:#cf335e;fill-opacity:1;stroke:none;display:inline" d="m 417.07255,363.45692 c 0,0 -16.54782,-7.72207 -19.12531,-0.39668 -5.43947,15.45936 -12.77506,36.46033 -17.59256,56.09844 -4.99593,20.36541 -9.21125,37.43505 -6.5524,48.41167 3.75127,15.48651 47.92046,47.92226 57.58674,39.86999 14.49632,-12.0758 -3.22355,-43.80278 -1.58983,-61.44887 2.90416,-31.36843 30.10883,-82.30786 30.10883,-82.30786" id="path3899" inkscape:connector-curvature="0" sodipodi:nodetypes="csssssc"/>
      <path sodipodi:nodetypes="ccsccccsccccccccscccc" inkscape:connector-curvature="0" id="path3901" d="m 374.79557,465.93076 2.68652,0.35822 c 0,0 3.22382,-1.21794 3.45409,-1.50452 0.23027,-0.28657 6.52439,-7.66588 6.52439,-7.66588 l 2.45624,9.45697 2.68652,7.80919 1.99569,1.28959 c 0,0 2.84013,-0.0716 2.2644,-0.75226 -0.57573,-0.68061 8.78869,-18.23337 8.78869,-18.23337 l 4.14491,15.04521 6.14061,8.16741 4.22166,0 6.75467,-3.36726 6.06385,-9.60028 5.14276,22.63946 -6.14062,18.69906 c 0,0 -7.98278,1.1463 -8.44333,0.78808 -0.46054,-0.35822 -23.02726,-13.39741 -23.02726,-13.39741 l -23.56458,-20.84836 -2.22596,-9.38536 z" style="fill:#dfac98;fill-opacity:1;stroke:none;display:inline"/>
      <path sodipodi:nodetypes="cssssssssccssssssssc" style="font-size:medium;font-style:normal;font-variant:normal;font-weight:normal;font-stretch:normal;text-indent:0;text-align:start;text-decoration:none;line-height:normal;letter-spacing:normal;word-spacing:normal;text-transform:none;direction:ltr;block-progression:tb;writing-mode:lr-tb;text-anchor:start;baseline-shift:baseline;color:#000000;fill:#c5907c;fill-opacity:1;stroke:none;stroke-width:4;marker:none;visibility:visible;display:inline;overflow:visible;enable-background:accumulate;font-family:Sans;-inkscape-font-specification:Sans" d="m 371.58816,448.83364 c -1.04018,7.27016 -1.51575,13.86744 -0.21283,19.24639 1.12579,4.64762 4.79461,9.66729 9.74821,14.90192 4.95361,5.23462 11.25079,10.58379 17.731,15.1885 6.48022,4.60471 13.12728,8.47562 18.99749,10.74658 2.93512,1.13548 5.67156,1.86784 8.21308,2.04185 2.5415,0.17401 5.04762,-0.24121 6.90817,-1.7911 4.20819,-3.50553 6.01538,-8.44583 6.44764,-13.75562 0.43226,-5.30978 -0.42585,-11.14292 -1.65029,-17.05124 -1.13489,-5.47626 -3.13803,-12.14608 -4.2799,-17.3661 l -2.59886,9.2836 c 0.73565,3.00907 1.46877,6.02189 2.08141,8.97804 1.18927,5.73867 1.94693,11.2107 1.57353,15.79748 -0.37341,4.58678 -1.79576,8.14256 -4.83572,10.67494 -0.55604,0.46319 -1.52337,0.76385 -3.2622,0.64479 -1.73885,-0.11905 -4.09261,-0.70445 -6.71629,-1.71945 -5.24738,-2.03 -11.68361,-5.7041 -17.92289,-10.13761 -6.23929,-4.43351 -12.31656,-9.6285 -17.0018,-14.57952 -4.68524,-4.95103 -7.90562,-9.75962 -8.63523,-12.86008 -0.92268,-3.92096 -3.77967,-10.66783 -4.58452,-18.24337 z" id="path3905" inkscape:connector-curvature="0"/>
      <path sodipodi:nodetypes="ccsscscssc" inkscape:connector-curvature="0" id="path3903" d="m 406.09463,341.31775 c 4.41562,9.30386 9.59215,17.61318 15.10568,24.13834 0,0 -19.13728,-10.78158 -23.09189,-3.18198 -11.23344,21.58739 -31.09503,97.44126 -24.12373,101.46614 7.39723,4.27079 13.24936,-8.46383 13.24936,-8.46383 0,0 0.60156,18.748 6.96752,19.53122 7.23509,0.89015 12.12437,-19.53122 12.12437,-19.53122 0,0 1.32664,23.45917 10.04226,24.68808 11.66582,1.64489 17.63533,-14.25194 14.64213,-24.30635 -4.32766,-14.537 8.80864,-55.03975 27.19241,-87.46084" style="fill:none;stroke:url(#linearGradient5841);stroke-width:4;stroke-linecap:butt;stroke-linejoin:miter;stroke-miterlimit:10;stroke-opacity:1;stroke-dasharray:none;display:inline"/>
    </g>
    <path style="fill:#f9ba61;fill-opacity:1;stroke:url(#linearGradient5932);stroke-width:4;stroke-linecap:butt;stroke-linejoin:miter;stroke-miterlimit:10;stroke-opacity:1;stroke-dasharray:none;display:inline" d="m 114.20074,226.3312 c -30.509178,-86.24433 -119.6590651,-2.09805 -85.823586,64.02162 0.772206,-6.35624 1.357965,-12.77463 3.460628,-18.68739 0.121142,17.39514 5.932914,36.37694 13.213365,51.16153 0.55592,-15.14293 -1.100818,-30.89709 4.435841,-46.66271 -0.767164,14.79036 3.992825,30.55242 9.039618,43.4048 -0.313078,-23.29387 2.926686,-63.21006 29.027296,-67.28314" id="path3770" inkscape:connector-curvature="0" sodipodi:nodetypes="ccccccc"/>
    <path style="fill:none;stroke:url(#linearGradient5932);stroke-width:2;stroke-linecap:butt;stroke-linejoin:miter;stroke-miterlimit:4;stroke-opacity:1;stroke-dasharray:none;display:inline" d="m 105.71186,231.2447 c -39.211126,-46.84078 -68.018034,6.41958 -73.778067,37.43962 4.660506,-22.71124 34.705054,-56.32387 68.394597,-34.50318" id="path3772" inkscape:connector-curvature="0" sodipodi:nodetypes="ccc"/>
    <path style="fill:#a1b09e;fill-opacity:1;stroke:none;display:inline" d="m 157.4586,216.9875 -24.2244,-35.99054 7.26732,-3.11456 22.14802,33.91416 z" id="path3832" inkscape:connector-curvature="0"/>
    <path sodipodi:type="arc" style="fill:#919e90;fill-opacity:1;stroke:none;display:inline" id="path3834" sodipodi:cx="135.74315" sodipodi:cy="175.02737" sodipodi:rx="13.929029" sodipodi:ry="13.929029" d="m 149.67218,175.02737 c 0,7.69279 -6.23624,13.92903 -13.92903,13.92903 -7.69279,0 -13.92903,-6.23624 -13.92903,-13.92903 0,-7.69279 6.23624,-13.92903 13.92903,-13.92903 7.69279,0 13.92903,6.23624 13.92903,13.92903 z" transform="matrix(1.107927,0,0,1.107927,-16.899768,-22.004756)"/>
    <path style="fill:#c5d7c6;fill-opacity:1;stroke:none;display:inline" d="m 129.08144,161.44442 c -15.84593,5.55173 -5.73849,22.12277 3.46063,23.1862 -4.1176,-5.65236 -5.30414,-16.32263 -3.46063,-23.1862 z" id="path3836" inkscape:connector-curvature="0" sodipodi:nodetypes="ccc"/>
    <path style="fill:#a1b09e;fill-opacity:1;stroke:none;display:inline" d="m 179.43359,188.61035 -1.90335,-15.9189 4.49882,0 1.55728,14.53464 z" id="path3838" inkscape:connector-curvature="0"/>
    <path transform="matrix(0.90406476,0,0,0.90406476,56.626462,6.0633333)" d="m 149.67218,175.02737 c 0,7.69279 -6.23624,13.92903 -13.92903,13.92903 -7.69279,0 -13.92903,-6.23624 -13.92903,-13.92903 0,-7.69279 6.23624,-13.92903 13.92903,-13.92903 7.69279,0 13.92903,6.23624 13.92903,13.92903 z" sodipodi:ry="13.929029" sodipodi:rx="13.929029" sodipodi:cy="175.02737" sodipodi:cx="135.74315" id="path3840" style="fill:#919e90;fill-opacity:1;stroke:none;display:inline" sodipodi:type="arc"/>
    <path style="fill:#c5d7c6;fill-opacity:1;stroke:none;display:inline" d="m 175.45387,155.04225 c -8.93272,2.60528 -9.778,18.55638 3.37411,19.89861 -3.50907,-5.0115 -5.598,-10.9887 -3.37411,-19.89861 z" id="path3842" inkscape:connector-curvature="0" sodipodi:nodetypes="ccc"/>
    <g style="display:inline" id="g3878" transform="translate(62.932502,-14.495667)">
      <path sodipodi:nodetypes="ccccccccccccccccccccccccccccc" inkscape:connector-curvature="0" id="path3880" d="m 169.94222,376.38056 -17.73808,29.83684 -18.94393,49.30993 -5.29316,39.69868 0.66165,10.8649 2.92516,8.84514 1.95011,0.94023 8.21833,-6.26821 1.21882,7.55668 1.95011,4.42257 1.88046,0.0697 5.53692,-5.98963 6.19857,-8.00938 1.32328,9.8202 1.70635,4.87527 3.30822,1.46259 5.95481,-4.4574 10.16843,-10.37737 1.25364,8.21832 4.03951,8.35762 5.25834,5.43245 3.34304,-0.38306 2.71623,-6.33786 -1.77599,-13.999 -2.64658,-15.60089 -3.48234,-33.56975 5.57174,-29.25166 6.16682,-37.63317 z" style="fill:#cf335e;fill-opacity:1;stroke:none;display:inline"/>
      <path inkscape:connector-curvature="0" id="path3882" d="m 130.60275,513.76395 2.75786,1.96991 8.02738,-6.15598 1.1327,4.97403 3.54584,7.09167 5.76199,-5.61424 7.23941,-9.01233 1.0342,9.01233 1.28044,6.45145 5.51575,0.34474 9.7018,-8.56911 4.82628,-5.07252 1.42818,9.20933 4.72778,9.84955 3.44734,2.16689 1.82217,0.59098 4.82627,-1.23119 -3.54584,11.42546 -14.72506,5.51575 -23.54041,-5.61423 -20.88104,-13.98636 -5.17101,-11.17924 z" style="fill:#dfac98;fill-opacity:1;stroke:none;display:inline"/>
      <path style="font-size:medium;font-style:normal;font-variant:normal;font-weight:normal;font-stretch:normal;text-indent:0;text-align:start;text-decoration:none;line-height:normal;letter-spacing:normal;word-spacing:normal;text-transform:none;direction:ltr;block-progression:tb;writing-mode:lr-tb;text-anchor:start;baseline-shift:baseline;color:#000000;fill:#c5907c;fill-opacity:1;stroke:none;stroke-width:4;marker:none;visibility:visible;display:inline;overflow:visible;enable-background:accumulate;font-family:Sans;-inkscape-font-specification:Sans" d="m 127.24945,501.04521 c 0.12134,5.81654 0.32957,10.71481 0.23008,14.30872 -0.15563,5.62208 2.90415,10.99209 7.52185,15.67053 4.61771,4.67844 10.88032,8.75673 17.79476,11.87478 13.82888,6.2361 30.31462,8.7882 41.30055,2.19387 2.08174,-1.24956 3.4036,-3.35785 4.17881,-5.78068 0.7752,-2.42283 1.0735,-5.2504 1.11435,-8.42726 0.0817,-6.35372 -0.9364,-14.13758 -2.2287,-22.56557 -0.0207,-0.13548 -0.0397,-0.25817 -0.0605,-0.39397 -0.36367,8.29631 1.03497,19.80624 -2.16816,22.92471 -0.0374,2.91085 -0.34023,5.33758 -0.9054,7.10398 -0.56518,1.7664 -1.32163,2.76375 -2.2287,3.30822 -8.7544,5.25483 -24.16695,3.45483 -37.15657,-2.40281 -6.4948,-2.92882 -12.36466,-6.80854 -16.47147,-10.96937 -4.10681,-4.16084 -6.34082,-8.51642 -6.23339,-12.39713 z" id="path3884" inkscape:connector-curvature="0" sodipodi:nodetypes="csssssssccsssscc"/>
      <path style="font-size:medium;font-style:normal;font-variant:normal;font-weight:normal;font-stretch:normal;text-indent:0;text-align:start;text-decoration:none;line-height:normal;letter-spacing:normal;word-spacing:normal;text-transform:none;direction:ltr;block-progression:tb;writing-mode:lr-tb;text-anchor:start;baseline-shift:baseline;color:#000000;fill:url(#linearGradient5841);fill-opacity:1;stroke:none;stroke-width:4;marker:none;visibility:visible;display:inline;overflow:visible;enable-background:accumulate;font-family:Sans;-inkscape-font-specification:Sans" d="m 161.76906,384.52926 c -11.2704,15.27601 -20.41334,38.55634 -26.71888,61.47152 -4.14643,15.06868 -6.98625,29.97511 -8.125,42.34375 -1.13875,12.36864 -0.84569,22.06948 2.34375,27.59375 0.54105,0.93711 1.32517,1.69779 2.28125,2.09375 0.95608,0.39596 1.97764,0.40069 2.84375,0.1875 1.73223,-0.42639 3.0978,-1.49448 4.34375,-2.625 0.6048,-0.54877 1.01174,-1.05882 1.53125,-1.625 0.11126,0.5735 0.031,0.57544 0.1875,1.1875 0.37127,1.45169 0.87102,2.97465 1.65625,4.3125 0.78523,1.33785 1.99125,2.66302 3.8125,2.96875 2.26741,0.38063 4.28809,-0.68097 5.9375,-2.03125 1.64941,-1.35028 3.04887,-3.11892 4.28125,-4.875 0.47073,-0.67077 0.74951,-1.19346 1.15625,-1.84375 0.10343,0.61493 0.0149,0.60379 0.15625,1.25 0.41046,1.87615 0.96716,3.84575 1.875,5.5625 0.90784,1.71675 2.21929,3.3225 4.28125,3.875 2.02484,0.54255 3.9975,-0.11444 5.84375,-1.09375 1.84625,-0.97931 3.65252,-2.38036 5.40625,-3.9375 2.0972,-1.8621 3.98149,-3.83436 5.625,-5.6875 0.38367,2.27504 0.92073,5.08914 1.78125,7.9375 0.91825,3.03944 2.1264,6.02976 3.9375,8.3125 0.90555,1.14137 1.99131,2.13554 3.34375,2.71875 1.35244,0.58321 2.94071,0.68459 4.5,0.21875 1.92178,-0.57414 3.24514,-2.22158 3.90625,-4.0625 0.66111,-1.84092 0.87711,-3.98727 0.875,-6.46875 -0.004,-4.96296 -0.9446,-11.24807 -2.125,-18.09375 -2.3608,-13.69137 -5.71882,-29.68676 -5.125,-40 0.93355,-16.21351 6.61036,-42.45797 9.88655,-58.12989 1.77529,-8.49224 1.68986,-12.21007 -0.9178,-13.77636 0,0 -11.48801,46.51338 -12.9375,71.6875 -0.6549,11.37417 2.8168,27.33868 5.15625,40.90625 1.16973,6.78378 2.05872,12.95506 2.0625,17.40625 0.002,2.22559 -0.22591,4.0137 -0.625,5.125 -0.39909,1.1113 -0.7595,1.43788 -1.28125,1.59375 -0.75434,0.22536 -1.26162,0.14381 -1.8125,-0.0937 -0.55088,-0.23756 -1.15919,-0.71594 -1.78125,-1.5 -1.24412,-1.56812 -2.377,-4.21377 -3.21875,-7 -1.6835,-5.57246 -2.3125,-11.625 -2.3125,-11.625 l -0.46875,-4.875 -3.0625,3.8125 c -1.68678,2.10065 -4.84535,5.76849 -8.0625,8.625 -1.60857,1.42825 -3.23164,2.63592 -4.625,3.375 -1.39336,0.73908 -2.46946,0.90666 -2.9375,0.78125 -0.49618,-0.13295 -1.14878,-0.71025 -1.78125,-1.90625 -0.63247,-1.196 -1.13578,-2.86645 -1.5,-4.53125 -0.72844,-3.3296 -0.875,-6.5625 -0.875,-6.5625 l -0.34375,-8.1875 -3.46875,7.40625 c 0,0 -1.56391,3.34039 -3.78125,6.5 -1.10867,1.57981 -2.37702,3.09201 -3.5625,4.0625 -1.18548,0.97049 -2.13982,1.28993 -2.75,1.1875 -0.15542,-0.0261 -0.55921,-0.25824 -1.03125,-1.0625 -0.47204,-0.80426 -0.90199,-2.04271 -1.21875,-3.28125 -0.63351,-2.47707 -0.8125,-4.9375 -0.8125,-4.9375 l -0.4375,-5.625 -3.21875,4.625 c 0,0 -1.79837,2.57872 -3.8125,4.40625 -1.00707,0.91376 -2.10267,1.55893 -2.625,1.6875 -0.26117,0.0643 -0.31278,0.0441 -0.34375,0.0312 -0.031,-0.0128 -0.13173,-0.039 -0.34375,-0.40625 -2.10155,-3.63999 -2.95367,-13.16318 -1.84375,-25.21875 1.10992,-12.05557 3.90891,-26.78868 8,-41.65625 8.18218,-29.73514 21.86169,-60.11214 36.53125,-71.15625 -5.15351,-1.14806 -11.24265,5.35098 -13.65612,8.62223 z" id="path3886" inkscape:connector-curvature="0" sodipodi:nodetypes="sssssssccssssccsssscssssscssscsscsscsscccssssscccsscsscccscccsscs"/>
    </g>
  </g>
  <g inkscape:groupmode="layer" id="layer4" inkscape:label="body" style="display:inline" transform="translate(-18.831431,-22.375781)">
    <path style="fill:#e84958;fill-opacity:1;stroke:none" d="M 105.01415,362.19037 97.375,351.375 85.5,326.75 79.125,298.25 79.25,273 l 4.5,-17.75 10.75,-17 15.75,-10.5 14.625,-2.375 23.5,0.125 c 0,0 7.54204,114.87763 6.83494,115.58474 -0.70711,0.70711 -11.66726,28.46105 -11.66726,28.46105 0,0 -22.98097,8.48528 -23.68808,7.6014 -0.70711,-0.88389 -14.84045,-14.95682 -14.84045,-14.95682 z" id="path6040" inkscape:connector-curvature="0"/>
    <path style="fill:#e84958;fill-opacity:1;stroke:none;display:inline" d="m 103.11715,363.45692 c 0,0 -16.547826,-7.72207 -19.12531,-0.39668 -5.439476,15.45936 -12.775061,36.46033 -17.592565,56.09844 -4.995926,20.36541 -9.211244,37.43505 -6.5524,48.41167 3.751274,15.48651 47.920465,47.92226 57.586745,39.86999 14.49632,-12.0758 -3.22355,-43.80278 -1.58983,-61.44887 2.90416,-31.36843 30.10883,-82.30786 30.10883,-82.30786" id="path3774" inkscape:connector-curvature="0" sodipodi:nodetypes="csssssc"/>
    <path style="fill:#e84958;fill-opacity:1;stroke:none" d="m 142,365 9.75,12.75 17.125,13.125 c 0,0 22.125,8.5 22.75,8.625 0.625,0.125 16.375,1.375 16.375,1.375 l 16,-3.625 -46.5,-63 -25.25,-65.25 -4.5,-24.5 -2,63 z" id="path5930" inkscape:connector-curvature="0"/>
    <path style="font-size:medium;font-style:normal;font-variant:normal;font-weight:normal;font-stretch:normal;text-indent:0;text-align:start;text-decoration:none;line-height:normal;letter-spacing:normal;word-spacing:normal;text-transform:none;direction:ltr;block-progression:tb;writing-mode:lr-tb;text-anchor:start;baseline-shift:baseline;color:#000000;fill:url(#linearGradient5841);fill-opacity:1;stroke:none;stroke-width:4;marker:none;visibility:visible;display:inline;overflow:visible;enable-background:accumulate;font-family:Sans;-inkscape-font-specification:Sans" d="m 136.59375,355.96875 c 3.732,14.07215 22.21807,30.33102 24.09375,31.71875 14.61976,10.81652 34.99345,18.85763 60.5,12.75 l -0.9375,-3.90625 c -24.27451,5.81261 -43.20283,-1.74285 -57.1875,-12.0625 -13.98467,-10.31965 -22.79877,-23.36277 -26.46875,-28.5 z" id="path3780" inkscape:connector-curvature="0" sodipodi:nodetypes="csccsc"/>
    <path style="fill:#af8243;fill-opacity:1;stroke:none" d="m 169.1753,211.06548 -22.53903,13.34664 -1.14905,8.66206 1.59099,29.78687 5.74524,23.42292 c 0,0 10.42983,37.65343 11.04855,38.89087 0.61871,1.23744 13.16986,27.04683 13.16986,27.04683 l 18.11961,23.42291 33.14563,30.49398 11.66726,4.06587 39.86315,-12.81631 17.32411,-9.19239 15.02602,-29.34493 6.62913,-22.45064 0.97227,-5.21491 -19.97577,-35.44373 -6.27557,-11.04854 15.29119,49.67425 -66.64482,11.66726 -50.73491,-49.14392 z" id="path5954" inkscape:connector-curvature="0"/>
    <path style="fill:#c8964d;fill-opacity:1;stroke:none" d="m 299.75,347.65625 c -5.97468,2.18763 -11.82828,4.42368 -18.94022,6.15641 l -35.44373,10.42983 -37.29988,-35.53212 C 202.5673,321.7116 196.70264,314.95668 191.84375,307.53125 178.85503,287.6817 162.3005,254.62694 166.10805,212.29767 l 8.19377,-3.79545 3.71231,20.15254 25.8094,39.42121 c 0,0 52.50268,33.05724 53.20978,33.05724 0.70711,0 36.76956,-16.61701 36.76956,-16.61701 l 13.25825,25.8094 12.9047,22.80419 c -6.59934,6.29915 -12.63565,11.75099 -20.21582,14.52646 z" id="path5950" inkscape:connector-curvature="0" sodipodi:nodetypes="scccsccccscccs"/>
    <path style="font-size:medium;font-style:normal;font-variant:normal;font-weight:normal;font-stretch:normal;text-indent:0;text-align:start;text-decoration:none;line-height:normal;letter-spacing:normal;word-spacing:normal;text-transform:none;direction:ltr;block-progression:tb;writing-mode:lr-tb;text-anchor:start;baseline-shift:baseline;color:#000000;fill:url(#linearGradient5940);fill-opacity:1;stroke:none;stroke-width:4;marker:none;visibility:visible;display:inline;overflow:visible;enable-background:accumulate;font-family:Sans;-inkscape-font-specification:Sans" d="m 191.84375,307.53125 c 4.41795,8.51674 15.69754,22.51613 26.8125,34.84375 5.55748,6.16381 11.05343,11.87517 15.625,16.15625 2.28579,2.14054 4.31846,3.91989 6.0625,5.25 1.74404,1.33011 3.02063,2.26557 4.625,2.59375 1.42995,0.2925 2.9279,0.11274 4.8125,-0.21875 1.8846,-0.33149 4.08915,-0.89152 6.53125,-1.59375 4.88419,-1.40445 10.70945,-3.40537 16.53125,-5.59375 11.6436,-4.37675 23.10475,-9.33731 26.90625,-11.3125 -3.3729,-2.3643 -22.94649,5.53992 -28.3125,7.5625 -5.75849,2.17052 -11.507,4.14513 -16.21875,5.5 -2.35587,0.67743 -4.45946,1.20704 -6.125,1.5 -1.66554,0.29296 -2.97223,0.29475 -3.34375,0.21875 -0.06,-0.0123 -1.39786,-0.64569 -2.96875,-1.84375 -1.57089,-1.19806 -3.55792,-2.8867 -5.78125,-4.96875 -4.44666,-4.1641 -9.66117,-10.00758 -15.375,-15.90625 -6.24103,-6.44293 -27.40004,-32.39411 -29.78125,-32.1875 z" id="path3784" inkscape:connector-curvature="0" sodipodi:nodetypes="cssssssscssscsssc"/>
    <path style="fill:#e84958;fill-opacity:1;stroke:none" d="m 218.40761,303.69647 20.15254,16.79379 16.61701,9.54594 17.67767,1.85615 10.96015,-7.07107 6.01041,-15.1144 4.33103,-23.59969 1.85616,-22.0087 0.79549,-23.77647 -2.47487,-33.58757 -93.3381,6.54074 -10.96015,24.57196 19.09188,55.50788 z" id="path5964" inkscape:connector-curvature="0"/>
    <path style="font-size:medium;font-style:normal;font-variant:normal;font-weight:normal;font-stretch:normal;text-indent:0;text-align:start;text-decoration:none;line-height:normal;letter-spacing:normal;word-spacing:normal;text-transform:none;direction:ltr;block-progression:tb;writing-mode:lr-tb;text-anchor:start;baseline-shift:baseline;color:#000000;fill:url(#linearGradient5940);fill-opacity:1;stroke:none;stroke-width:4;marker:none;visibility:visible;display:inline;overflow:visible;enable-background:accumulate;font-family:Sans;-inkscape-font-specification:Sans" d="m 204.71875,278.4375 -3.875,0.96875 c 1.97424,7.90954 8.01792,16.93279 16,25.5 7.98208,8.56721 17.93532,16.63466 27.96875,22.15625 10.03343,5.52159 20.16551,8.60114 28.6875,6.65625 4.261,-0.97245 8.09691,-3.28793 10.9375,-7.09375 2.84059,-3.80582 4.72382,-9.01442 5.53125,-15.78125 l -2.68712,0.30465 c -0.4702,3.94064 -2.60997,6.40199 -3.75223,9.02601 -0.67749,1.55634 -1.45492,2.89784 -2.31065,4.04434 -2.2985,3.07953 -5.14714,4.83841 -8.59375,5.625 -6.89322,1.57317 -16.30354,-1.04514 -25.875,-6.3125 -9.57146,-5.26736 -19.26878,-13.07933 -26.96875,-21.34375 -7.69997,-8.26442 -13.39005,-17.04955 -15.0625,-23.75 z" id="path3786" inkscape:connector-curvature="0" sodipodi:nodetypes="ccssssccsssssc"/>
    <g id="g5967">
      <path sodipodi:nodetypes="cscc" inkscape:connector-curvature="0" id="path3820" d="m 109.62712,246.41631 c 0,0 2.50821,0.97882 5.75053,0.91764 3.24232,-0.0612 2.81409,-11.80694 2.81409,-11.80694 -3.65016,1.14648 -8.35803,5.69018 -8.56462,10.8893 z" style="fill:#89d457;fill-opacity:1;stroke:none;display:inline"/>
      <path sodipodi:nodetypes="ccccc" inkscape:connector-curvature="0" id="path3818" d="m 118.43644,263.30085 c 2.14912,-8.63831 3.41143,-17.52295 -0.2447,-27.77384 -1.91654,4.91998 -4.07878,9.50211 -8.56462,10.8893 2.81152,5.98594 6.53618,11.86445 4.0376,18.47511 z" style="fill:#d6fe86;fill-opacity:1;stroke:none;display:inline"/>
    </g>
    <g id="g5971">
      <path sodipodi:nodetypes="ccc" inkscape:connector-curvature="0" id="path3814" d="m 116.1906,264.13856 c -1.94905,-6.22435 12.3641,-31.17848 22.06151,-28.80973 1.2717,4.87879 -6.54986,20.6722 -22.06151,28.80973 z" style="fill:#5abd45;fill-opacity:1;stroke:none;display:inline"/>
      <path sodipodi:nodetypes="ccc" inkscape:connector-curvature="0" id="path3816" d="m 116.27712,262.6678 c 6.47331,-8.78037 12.80061,-17.68851 20.15816,-25.69517 -9.14277,6.14167 -14.61031,15.95857 -20.15816,25.69517 z" style="fill:#2c8f28;fill-opacity:1;stroke:none;display:inline"/>
    </g>
    <path style="fill:#89d457;fill-opacity:1;stroke:none;display:inline" d="m 115.2553,329.98252 c 1.69152,0.20314 2.27409,3.30992 3.97643,3.24232 3.0713,-0.12197 18.29973,-14.8047 23.67478,-32.88788 5.38483,-18.1161 -0.43829,-40.18559 -7.09613,-43.52075 -6.94206,-3.47754 -18.77555,8.12841 -21.65625,6.97404 -1.80551,-0.72352 -3.59828,-10.0172 -7.5858,-9.42108 -12.221362,1.82705 -20.094802,19.66818 -18.637586,38.67581 0.743356,9.69619 4.440049,14.63034 8.210704,21.8599 3.720062,7.13255 4.815482,13.54489 8.469242,13.60942 1.33761,0.0236 1.49312,-2.78098 2.8141,-2.56939 1.56405,0.25052 0.39256,5.44141 3.85408,5.87288 1.62277,0.20227 2.27332,-2.03981 3.97643,-1.83527 z" id="path3794" inkscape:connector-curvature="0" sodipodi:nodetypes="ssssssssssss"/>
    <path style="fill:#b5f778;fill-opacity:1;stroke:none;display:inline" d="m 111.09534,279.57362 c 4.63425,1.08621 10.06563,-5.81245 13.94809,-3.05879 13.45015,9.53959 4.27351,34.58726 -8.50344,38.90784 -2.63171,0.88992 -6.54582,-4.77172 -6.54582,-4.77172 0,0 -3.23085,4.52088 -4.89406,3.42585 -10.67228,-7.02644 -15.707537,-35.40606 -3.3035,-41.96663 3.51334,-1.85823 5.42911,6.55646 9.29873,7.46345 z" id="path3796" inkscape:connector-curvature="0" sodipodi:nodetypes="ssscsss"/>
    <path style="fill:#5abd45;fill-opacity:1;stroke:none;display:inline" d="m 111.7071,274.19015 c 0.32215,0 -0.44679,11.53895 -0.80304,23.73435 -0.37653,12.88981 -0.46212,26.63489 -0.90989,26.7969 -0.44777,0.16201 -1.2803,-13.524 -0.80095,-26.57574 0.45076,-12.2732 2.19173,-23.95551 2.51388,-23.95551 z" id="path3798" inkscape:connector-curvature="0" sodipodi:nodetypes="zszsz"/>
    <path style="fill:#ae8936;fill-opacity:1;stroke:none;display:inline" d="m 113.20581,287.93038 c 1.72151,0.26115 0.87154,6.73981 -0.12977,6.66171 -0.72224,-0.0563 -2.19161,-7.01385 0.12977,-6.66171 z" id="path3800" inkscape:connector-curvature="0" sodipodi:nodetypes="sss"/>
    <path sodipodi:nodetypes="sss" inkscape:connector-curvature="0" id="path3802" d="m 116.36363,293.33761 c 1.72151,0.26115 0.87154,6.73981 -0.12977,6.66171 -0.72224,-0.0563 -2.19161,-7.01385 0.12977,-6.66171 z" style="fill:#ae8936;fill-opacity:1;stroke:none;display:inline"/>
    <path style="fill:#ae8936;fill-opacity:1;stroke:none;display:inline" d="m 112.68671,300.4319 c 1.72151,0.26115 0.87154,6.73981 -0.12977,6.66171 -0.72224,-0.0563 -2.19161,-7.01385 0.12977,-6.66171 z" id="path3804" inkscape:connector-curvature="0" sodipodi:nodetypes="sss"/>
    <path sodipodi:nodetypes="sss" inkscape:connector-curvature="0" id="path3806" d="m 107.06319,285.29165 c 1.72151,0.26115 0.87154,6.73981 -0.12977,6.66171 -0.72224,-0.0563 -2.19161,-7.01385 0.12977,-6.66171 z" style="fill:#ae8936;fill-opacity:1;stroke:none;display:inline"/>
    <path style="fill:#ae8936;fill-opacity:1;stroke:none;display:inline" d="m 104.20817,292.55897 c 1.72151,0.26115 0.87154,6.73981 -0.12977,6.66171 -0.72224,-0.0563 -2.19161,-7.01385 0.12977,-6.66171 z" id="path3808" inkscape:connector-curvature="0" sodipodi:nodetypes="sss"/>
    <path sodipodi:nodetypes="sss" inkscape:connector-curvature="0" id="path3810" d="m 107.40925,294.98141 c 1.72151,0.26115 0.87154,6.73981 -0.12977,6.66171 -0.72224,-0.0563 -2.19161,-7.01385 0.12977,-6.66171 z" style="fill:#ae8936;fill-opacity:1;stroke:none;display:inline"/>
    <path style="fill:#ae8936;fill-opacity:1;stroke:none;display:inline" d="m 105.15984,302.42176 c 1.72151,0.26115 0.87154,6.73981 -0.12977,6.66171 -0.72224,-0.0563 -2.19161,-7.01385 0.12977,-6.66171 z" id="path3812" inkscape:connector-curvature="0" sodipodi:nodetypes="sss"/>
    <path style="fill:#fefaad;fill-opacity:1;stroke:none" d="m 60.84017,465.93076 2.686515,0.35822 c 0,0 3.223818,-1.21794 3.454091,-1.50452 0.230272,-0.28657 6.524392,-7.66588 6.524392,-7.66588 l 2.456242,9.45697 2.686514,7.80919 1.995697,1.28959 c 0,0 1.37316,-0.77364 2.264396,-0.75226 1.579797,0.0379 10.875579,-17.53774 8.788693,-18.23337 l 4.14491,15.04521 6.14061,8.16741 4.22166,0 6.75467,-3.36726 6.06385,-9.60028 5.14276,22.63946 -6.14062,18.69906 c 0,0 -7.98278,1.1463 -8.44333,0.78808 -0.46054,-0.35822 -23.027266,-13.39741 -23.027266,-13.39741 l -23.564572,-20.84836 -2.225969,-9.38536 z" id="path5917" inkscape:connector-curvature="0" sodipodi:nodetypes="ccsccccsccccccccscccc"/>
    <path inkscape:connector-curvature="0" id="path5915" d="m 57.675648,448.83364 c -1.040179,7.27016 -1.515745,13.86744 -0.212823,19.24639 1.125789,4.64762 4.794606,9.66729 9.74821,14.90192 4.953604,5.23462 11.250786,10.58379 17.730997,15.1885 6.480216,4.60471 13.12728,8.47562 18.997488,10.74658 2.93512,1.13548 5.67156,1.86784 8.21308,2.04185 2.5415,0.17401 5.04762,-0.24121 6.90817,-1.7911 4.20819,-3.50553 6.01538,-8.44583 6.44764,-13.75562 0.43226,-5.30978 -0.42585,-11.14292 -1.65029,-17.05124 -1.13489,-5.47626 -3.13803,-12.14608 -4.2799,-17.3661 l -2.59886,9.2836 c 0.73565,3.00907 1.46877,6.02189 2.08141,8.97804 1.18927,5.73867 1.94693,11.2107 1.57353,15.79748 -0.37341,4.58678 -1.79576,8.14256 -4.83572,10.67494 -0.55604,0.46319 -1.52337,0.76385 -3.2622,0.64479 -1.73885,-0.11905 -4.09261,-0.70445 -6.71629,-1.71945 -5.24738,-2.03 -11.683607,-5.7041 -17.922892,-10.13761 -6.239283,-4.43351 -12.316561,-9.6285 -17.0018,-14.57952 -4.685237,-4.95103 -7.905618,-9.75962 -8.635224,-12.86008 -0.922687,-3.92096 -3.77967,-10.66783 -4.584526,-18.24337 z" style="font-size:medium;font-style:normal;font-variant:normal;font-weight:normal;font-stretch:normal;text-indent:0;text-align:start;text-decoration:none;line-height:normal;letter-spacing:normal;word-spacing:normal;text-transform:none;direction:ltr;block-progression:tb;writing-mode:lr-tb;text-anchor:start;baseline-shift:baseline;color:#000000;fill:#dbcd86;fill-opacity:1;stroke:none;stroke-width:4;marker:none;visibility:visible;display:inline;overflow:visible;enable-background:accumulate;font-family:Sans;-inkscape-font-specification:Sans" sodipodi:nodetypes="cssssssssccssssssssc"/>
    <g id="g5919"/>
    <path style="font-size:medium;font-style:normal;font-variant:normal;font-weight:normal;font-stretch:normal;text-indent:0;text-align:start;text-decoration:none;line-height:normal;letter-spacing:normal;word-spacing:normal;text-transform:none;direction:ltr;block-progression:tb;writing-mode:lr-tb;text-anchor:start;baseline-shift:baseline;color:#000000;fill:url(#linearGradient5940);fill-opacity:1;stroke:none;stroke-width:4;marker:none;visibility:visible;display:inline;overflow:visible;enable-background:accumulate;font-family:Sans;-inkscape-font-specification:Sans" d="m 176.125,205.78125 c 0,0 -7.71599,2.92105 -15.5625,7.03125 -3.92325,2.0551 -7.87796,4.38728 -11,6.90625 -3.12204,2.51897 -5.6593,5.18791 -5.875,8.5625 -0.54209,8.48087 0.57634,25.47575 4.03125,45.28125 3.45491,19.8055 9.25159,42.30766 18.3125,61.4375 13.29597,28.07112 30.70003,47.32859 45.0625,59.5 7.18123,6.08571 13.60527,10.40168 18.40625,13.1875 2.40049,1.39291 4.39734,2.39883 5.90625,3.0625 0.75446,0.33184 1.36495,0.57901 1.90625,0.75 0.27065,0.0855 0.51374,0.13841 0.78125,0.1875 0.26751,0.0491 0.51333,0.13788 1.125,0 20.9928,-4.73192 47.46444,-14.04269 58.5625,-22.5 1.11086,-0.84654 2.02841,-2.06391 3.125,-3.6875 1.09659,-1.62359 2.30379,-3.62446 3.5625,-5.9375 2.51742,-4.62607 5.28959,-10.43432 7.84375,-16.40625 2.55416,-5.97193 4.87778,-12.11816 6.53125,-17.4375 1.65347,-5.31934 2.7005,-9.65322 2.375,-12.84375 -0.13545,-1.32769 -0.65369,-2.40085 -1.4375,-4.15625 -0.78381,-1.7554 -1.86264,-3.94295 -3.125,-6.40625 -2.52472,-4.9266 -5.81041,-11.00011 -9.09375,-16.90625 C 300.99583,293.59398 294.5,282.4375 294.5,282.4375 l -0.82837,2.49127 c 0,0 -1.01829,2.30073 1.42166,6.56392 2.43995,4.26319 5.69777,9.99756 8.96921,15.88231 3.27145,5.88475 6.57563,11.89725 9.0625,16.75 1.24344,2.42637 2.26638,4.57573 3,6.21875 0.73362,1.64302 1.13311,3.01695 1.125,2.9375 0.17584,1.72364 -0.62422,6.12027 -2.21875,11.25 -1.59453,5.12973 -3.89477,11.19036 -6.40625,17.0625 -2.51148,5.87214 -5.22206,11.55813 -7.65625,16.03125 -1.21709,2.23656 -2.38649,4.19269 -3.375,5.65625 -0.98851,1.46356 -1.87667,2.45807 -2.21875,2.71875 -9.67145,7.37017 -36.21454,17.05817 -56.75,21.71875 -0.0431,-0.0119 -0.0377,-0.0136 -0.0937,-0.0312 -0.32851,-0.10377 -0.86828,-0.30215 -1.53125,-0.59375 -1.32593,-0.58319 -3.2063,-1.54406 -5.5,-2.875 -4.58739,-2.66189 -10.81684,-6.85281 -17.8125,-12.78125 -13.99131,-11.85688 -31.01016,-30.66548 -44.03125,-58.15625 -8.82403,-18.62975 -14.58794,-40.84642 -18,-60.40625 -3.41206,-19.55983 -4.46595,-36.56521 -3.96875,-44.34375 0.0785,-1.2284 1.60206,-3.4502 4.375,-5.6875 2.77294,-2.2373 6.55414,-4.51491 10.34375,-6.5 7.57921,-3.97019 15.125,-6.84375 15.125,-6.84375 l -1.40625,-3.71875 z" id="path3782" inkscape:connector-curvature="0" sodipodi:nodetypes="cssssssssccssssssssssccsssscsssssccssssscssccc"/>
    <path style="font-size:medium;font-style:normal;font-variant:normal;font-weight:normal;font-stretch:normal;text-indent:0;text-align:start;text-decoration:none;line-height:normal;letter-spacing:normal;word-spacing:normal;text-transform:none;direction:ltr;block-progression:tb;writing-mode:lr-tb;text-anchor:start;baseline-shift:baseline;color:#000000;fill:url(#linearGradient5841);fill-opacity:1;stroke:none;stroke-width:4;marker:none;visibility:visible;display:inline;overflow:visible;enable-background:accumulate;font-family:Sans;-inkscape-font-specification:Sans" d="m 295.09375,205.75 -3.96875,0.34375 c 3.53201,40.40992 7.04458,79.92482 -8.14559,115.25468 4.25033,-2.80055 6.3735,-5.13727 7.24753,-7.69372 11.61957,-34.04262 8.10611,-70.84357 4.86681,-107.90471 z" id="path3788" inkscape:connector-curvature="0" sodipodi:nodetypes="ccccc"/>
    <g id="g3872">
      <path style="fill:#e84958;fill-opacity:1;stroke:none;display:inline" d="m 169.94222,376.38056 -17.73808,29.83684 -18.94393,49.30993 -5.29316,39.69868 0.66165,10.8649 2.92516,8.84514 1.95011,0.94023 8.21833,-6.26821 1.21882,7.55668 1.95011,4.42257 1.88046,0.0697 5.53692,-5.98963 6.19857,-8.00938 1.32328,9.8202 1.70635,4.87527 3.30822,1.46259 5.95481,-4.4574 10.16843,-10.37737 1.25364,8.21832 4.03951,8.35762 5.25834,5.43245 3.34304,-0.38306 2.71623,-6.33786 -1.77599,-13.999 -2.64658,-15.60089 -3.48234,-33.56975 5.57174,-29.25166 6.16682,-37.63317 z" id="path5901" inkscape:connector-curvature="0" sodipodi:nodetypes="ccccccccccccccccccccccccccccc"/>
      <path style="fill:#fefaad;fill-opacity:1;stroke:none;display:inline" d="m 130.60275,513.76395 2.75786,1.96991 8.02738,-6.15598 1.1327,4.97403 3.54584,7.09167 5.76199,-5.61424 7.23941,-9.01233 1.0342,9.01233 1.28044,6.45145 5.51575,0.34474 9.7018,-8.56911 4.82628,-5.07252 1.42818,9.20933 4.72778,9.84955 3.44734,2.16689 1.82217,0.59098 4.82627,-1.23119 -3.54584,11.42546 -14.72506,5.51575 -23.54041,-5.61423 -20.88104,-13.98636 -5.17101,-11.17924 z" id="path5899" inkscape:connector-curvature="0"/>
      <path sodipodi:nodetypes="csssssssccsssscc" inkscape:connector-curvature="0" id="path5897" d="m 127.24945,501.04521 c 0.12134,5.81654 0.32957,10.71481 0.23008,14.30872 -0.15563,5.62208 2.90415,10.99209 7.52185,15.67053 4.61771,4.67844 10.88032,8.75673 17.79476,11.87478 13.82888,6.2361 30.31462,8.7882 41.30055,2.19387 2.08174,-1.24956 3.4036,-3.35785 4.17881,-5.78068 0.7752,-2.42283 1.0735,-5.2504 1.11435,-8.42726 0.0817,-6.35372 -0.9364,-14.13758 -2.2287,-22.56557 -0.0207,-0.13548 -0.0397,-0.25817 -0.0605,-0.39397 -0.36367,8.29631 1.03497,19.80624 -2.16816,22.92471 -0.0374,2.91085 -0.34023,5.33758 -0.9054,7.10398 -0.56518,1.7664 -1.32163,2.76375 -2.2287,3.30822 -8.7544,5.25483 -24.16695,3.45483 -37.15657,-2.40281 -6.4948,-2.92882 -12.36466,-6.80854 -16.47147,-10.96937 -4.10681,-4.16084 -6.34082,-8.51642 -6.23339,-12.39713 z" style="font-size:medium;font-style:normal;font-variant:normal;font-weight:normal;font-stretch:normal;text-indent:0;text-align:start;text-decoration:none;line-height:normal;letter-spacing:normal;word-spacing:normal;text-transform:none;direction:ltr;block-progression:tb;writing-mode:lr-tb;text-anchor:start;baseline-shift:baseline;color:#000000;fill:#dbcd86;fill-opacity:1;stroke:none;stroke-width:4;marker:none;visibility:visible;display:inline;overflow:visible;enable-background:accumulate;font-family:Sans;-inkscape-font-specification:Sans"/>
      <path sodipodi:nodetypes="sssssssccssssccsssscssssscssscsscsscsscccssssscccsscsscccscccsscs" inkscape:connector-curvature="0" id="path3861" d="m 161.76906,384.52926 c -11.2704,15.27601 -20.41334,38.55634 -26.71888,61.47152 -4.14643,15.06868 -6.98625,29.97511 -8.125,42.34375 -1.13875,12.36864 -0.84569,22.06948 2.34375,27.59375 0.54105,0.93711 1.32517,1.69779 2.28125,2.09375 0.95608,0.39596 1.97764,0.40069 2.84375,0.1875 1.73223,-0.42639 3.0978,-1.49448 4.34375,-2.625 0.6048,-0.54877 1.01174,-1.05882 1.53125,-1.625 0.11126,0.5735 0.031,0.57544 0.1875,1.1875 0.37127,1.45169 0.87102,2.97465 1.65625,4.3125 0.78523,1.33785 1.99125,2.66302 3.8125,2.96875 2.26741,0.38063 4.28809,-0.68097 5.9375,-2.03125 1.64941,-1.35028 3.04887,-3.11892 4.28125,-4.875 0.47073,-0.67077 0.74951,-1.19346 1.15625,-1.84375 0.10343,0.61493 0.0149,0.60379 0.15625,1.25 0.41046,1.87615 0.96716,3.84575 1.875,5.5625 0.90784,1.71675 2.21929,3.3225 4.28125,3.875 2.02484,0.54255 3.9975,-0.11444 5.84375,-1.09375 1.84625,-0.97931 3.65252,-2.38036 5.40625,-3.9375 2.0972,-1.8621 3.98149,-3.83436 5.625,-5.6875 0.38367,2.27504 0.92073,5.08914 1.78125,7.9375 0.91825,3.03944 2.1264,6.02976 3.9375,8.3125 0.90555,1.14137 1.99131,2.13554 3.34375,2.71875 1.35244,0.58321 2.94071,0.68459 4.5,0.21875 1.92178,-0.57414 3.24514,-2.22158 3.90625,-4.0625 0.66111,-1.84092 0.87711,-3.98727 0.875,-6.46875 -0.004,-4.96296 -0.9446,-11.24807 -2.125,-18.09375 -2.3608,-13.69137 -5.71882,-29.68676 -5.125,-40 0.93355,-16.21351 6.61036,-42.45797 9.88655,-58.12989 1.77529,-8.49224 1.68986,-12.21007 -0.9178,-13.77636 0,0 -11.48801,46.51338 -12.9375,71.6875 -0.6549,11.37417 2.8168,27.33868 5.15625,40.90625 1.16973,6.78378 2.05872,12.95506 2.0625,17.40625 0.002,2.22559 -0.22591,4.0137 -0.625,5.125 -0.39909,1.1113 -0.7595,1.43788 -1.28125,1.59375 -0.75434,0.22536 -1.26162,0.14381 -1.8125,-0.0937 -0.55088,-0.23756 -1.15919,-0.71594 -1.78125,-1.5 -1.24412,-1.56812 -2.377,-4.21377 -3.21875,-7 -1.6835,-5.57246 -2.3125,-11.625 -2.3125,-11.625 l -0.46875,-4.875 -3.0625,3.8125 c -1.68678,2.10065 -4.84535,5.76849 -8.0625,8.625 -1.60857,1.42825 -3.23164,2.63592 -4.625,3.375 -1.39336,0.73908 -2.46946,0.90666 -2.9375,0.78125 -0.49618,-0.13295 -1.14878,-0.71025 -1.78125,-1.90625 -0.63247,-1.196 -1.13578,-2.86645 -1.5,-4.53125 -0.72844,-3.3296 -0.875,-6.5625 -0.875,-6.5625 l -0.34375,-8.1875 -3.46875,7.40625 c 0,0 -1.56391,3.34039 -3.78125,6.5 -1.10867,1.57981 -2.37702,3.09201 -3.5625,4.0625 -1.18548,0.97049 -2.13982,1.28993 -2.75,1.1875 -0.15542,-0.0261 -0.55921,-0.25824 -1.03125,-1.0625 -0.47204,-0.80426 -0.90199,-2.04271 -1.21875,-3.28125 -0.63351,-2.47707 -0.8125,-4.9375 -0.8125,-4.9375 l -0.4375,-5.625 -3.21875,4.625 c 0,0 -1.79837,2.57872 -3.8125,4.40625 -1.00707,0.91376 -2.10267,1.55893 -2.625,1.6875 -0.26117,0.0643 -0.31278,0.0441 -0.34375,0.0312 -0.031,-0.0128 -0.13173,-0.039 -0.34375,-0.40625 -2.10155,-3.63999 -2.95367,-13.16318 -1.84375,-25.21875 1.10992,-12.05557 3.90891,-26.78868 8,-41.65625 8.18218,-29.73514 21.86169,-60.11214 36.53125,-71.15625 -5.15351,-1.14806 -11.24265,5.35098 -13.65612,8.62223 z" style="font-size:medium;font-style:normal;font-variant:normal;font-weight:normal;font-stretch:normal;text-indent:0;text-align:start;text-decoration:none;line-height:normal;letter-spacing:normal;word-spacing:normal;text-transform:none;direction:ltr;block-progression:tb;writing-mode:lr-tb;text-anchor:start;baseline-shift:baseline;color:#000000;fill:url(#linearGradient5841);fill-opacity:1;stroke:none;stroke-width:4;marker:none;visibility:visible;display:inline;overflow:visible;enable-background:accumulate;font-family:Sans;-inkscape-font-specification:Sans"/>
    </g>
    <path sodipodi:nodetypes="cssssssssccssssssssc" style="font-size:medium;font-style:normal;font-variant:normal;font-weight:normal;font-stretch:normal;text-indent:0;text-align:start;text-decoration:none;line-height:normal;letter-spacing:normal;word-spacing:normal;text-transform:none;direction:ltr;block-progression:tb;writing-mode:lr-tb;text-anchor:start;baseline-shift:baseline;color:#000000;fill:#dbcd86;fill-opacity:1;stroke:none;stroke-width:4;marker:none;visibility:visible;display:inline;overflow:visible;enable-background:accumulate;font-family:Sans;-inkscape-font-specification:Sans" d="m 57.675648,448.83364 c -1.040179,7.27016 -1.515745,13.86744 -0.212823,19.24639 1.125789,4.64762 4.794606,9.66729 9.74821,14.90192 4.953604,5.23462 11.250786,10.58379 17.730997,15.1885 6.480216,4.60471 13.12728,8.47562 18.997488,10.74658 2.93512,1.13548 5.67156,1.86784 8.21308,2.04185 2.5415,0.17401 5.04762,-0.24121 6.90817,-1.7911 4.20819,-3.50553 6.01538,-8.44583 6.44764,-13.75562 0.43226,-5.30978 -0.42585,-11.14292 -1.65029,-17.05124 -1.13489,-5.47626 -3.13803,-12.14608 -4.2799,-17.3661 l -2.59886,9.2836 c 0.73565,3.00907 1.46877,6.02189 2.08141,8.97804 1.18927,5.73867 1.94693,11.2107 1.57353,15.79748 -0.37341,4.58678 -1.79576,8.14256 -4.83572,10.67494 -0.55604,0.46319 -1.52337,0.76385 -3.2622,0.64479 -1.73885,-0.11905 -4.09261,-0.70445 -6.71629,-1.71945 -5.24738,-2.03 -11.683607,-5.7041 -17.922892,-10.13761 -6.239283,-4.43351 -12.316561,-9.6285 -17.0018,-14.57952 -4.685237,-4.95103 -7.905618,-9.75962 -8.635224,-12.86008 -0.922687,-3.92096 -3.77967,-10.66783 -4.584526,-18.24337 z" id="path3895" inkscape:connector-curvature="0"/>
    <path sodipodi:nodetypes="ccsscsccsc" transform="translate(18.831431,22.375781)" inkscape:connector-curvature="0" id="path3897" d="M 126.8125,204.27979 C 32.83961,192.76166 54.100726,302.4718 88.413472,343.08031 c 0,0 -19.137274,-10.78158 -23.091883,-3.18198 -11.233445,21.58739 -31.095032,97.44126 -24.123737,101.46614 7.397233,4.27079 12.542262,-5.98896 12.542262,-5.98896 0,0 1.308661,16.27313 7.674621,17.05635 7.235089,0.89015 11.594038,-15.99569 11.594038,-15.99569 0.63631,7.05641 6.255831,20.43556 12.517136,21.68288 11.665821,1.64489 15.690791,-14.78227 12.697591,-24.83668 -4.327664,-14.537 8.80864,-55.03975 27.19241,-87.46084" style="fill:none;stroke:url(#linearGradient5841);stroke-width:4;stroke-linecap:butt;stroke-linejoin:miter;stroke-miterlimit:15;stroke-opacity:1;stroke-dasharray:none"/>
    <path sodipodi:nodetypes="csccccc" inkscape:connector-curvature="0" id="path3860" d="m 149.5625,219.71875 c -3.12204,2.51897 -5.6593,5.18791 -5.875,8.5625 -0.54209,8.48087 0.57634,25.47575 4.03125,45.28125 l 3.93755,-0.68745 c -3.41206,-19.55983 -4.46595,-36.56521 -3.96875,-44.34375 0.0785,-1.2284 1.60206,-3.4502 4.375,-5.6875 z" style="font-size:medium;font-style:normal;font-variant:normal;font-weight:normal;font-stretch:normal;text-indent:0;text-align:start;text-decoration:none;line-height:normal;letter-spacing:normal;word-spacing:normal;text-transform:none;direction:ltr;block-progression:tb;writing-mode:lr-tb;text-anchor:start;baseline-shift:baseline;color:#000000;fill:url(#linearGradient5940);fill-opacity:1;stroke:none;stroke-width:4;marker:none;visibility:visible;display:inline;overflow:visible;enable-background:accumulate;font-family:Sans;-inkscape-font-specification:Sans"/>
  </g>
  <g inkscape:groupmode="layer" id="layer5" inkscape:label="head" style="display:inline" transform="translate(-18.831431,-22.375781)">
    <path style="fill:#ffffff;fill-opacity:1;stroke:none" d="m 189.5,162.625 c 0.125,-0.5 -5.875,-41.875 -5.875,-41.875 l 3.5,-21.749999 9.375,-13.875 103.75,2.375 10.5,29.749999 -6.625,38.875 z" id="path6028" inkscape:connector-curvature="0"/>
    <g id="g6022">
      <path style="fill:url(#linearGradient6004);fill-opacity:1;stroke:none;display:inline" d="m 311.64727,129.17043 c 0,8.93336 -13.09698,16.17528 -29.25292,16.17528 -16.15594,0 -29.25292,-7.24192 -29.25292,-16.17528 0,-8.93337 13.09698,-16.17529 29.25292,-16.17529 16.15594,0 29.25292,7.24192 29.25292,16.17529 z" id="path4570" inkscape:connector-curvature="0" sodipodi:cx="282.39435" sodipodi:cy="129.17043" sodipodi:rx="29.252922" sodipodi:ry="16.175282" sodipodi:type="arc" transform="matrix(0.03357897,-0.99943607,0.99943607,0.03357897,143.81425,407.0681)"/>
      <path style="fill:#000000;fill-opacity:1;stroke:none;display:inline" d="m 302.84193,127.12647 c 0,5.51218 -9.14274,9.98069 -20.42088,9.98069 -11.27814,0 -20.42087,-4.46851 -20.42087,-9.98069 0,-5.51218 9.14273,-9.98068 20.42087,-9.98068 11.27814,0 20.42088,4.4685 20.42088,9.98068 z" id="path4876" inkscape:connector-curvature="0" sodipodi:cx="282.42105" sodipodi:cy="127.12647" sodipodi:rx="20.420876" sodipodi:ry="9.9806871" sodipodi:type="arc" transform="matrix(0.01274265,-0.99991881,0.99991881,0.01274265,151.53307,407.90465)"/>
      <path transform="matrix(0.5093661,0.86054993,-0.86054993,0.5093661,234.70154,-186.03016)" sodipodi:type="arc" sodipodi:ry="5.6950989" sodipodi:rx="7.0577779" sodipodi:cy="112.81292" sodipodi:cx="280.49506" inkscape:connector-curvature="0" id="path5350" d="m 287.55283,112.81292 c 0,3.14532 -3.15987,5.6951 -7.05777,5.6951 -3.89791,0 -7.05778,-2.54978 -7.05778,-5.6951 0,-3.14532 3.15987,-5.6951 7.05778,-5.6951 3.8979,0 7.05777,2.54978 7.05777,5.6951 z" style="fill:#ffffff;fill-opacity:1;stroke:none;display:inline"/>
      <path style="fill:#ffffff;fill-opacity:1;stroke:none;display:inline" d="m 276.57612,122.57958 c 0,1.26051 -1.37638,2.28236 -3.07423,2.28236 -1.69785,0 -3.07423,-1.02185 -3.07423,-2.28236 0,-1.26051 1.37638,-2.28235 3.07423,-2.28235 1.69785,0 3.07423,1.02184 3.07423,2.28235 z" id="path5512" inkscape:connector-curvature="0" sodipodi:cx="273.50189" sodipodi:cy="122.57958" sodipodi:rx="3.0742271" sodipodi:ry="2.2823544" sodipodi:type="arc" transform="matrix(0.63434031,0.77305392,-0.77305392,0.63434031,194.76925,-166.60931)"/>
    </g>
    <g id="g6006">
      <g id="g6016">
        <path style="fill:url(#linearGradient6014);fill-opacity:1;stroke:none;display:inline" d="m 236.17371,130.98415 c 0,9.16719 -11.96611,16.59867 -26.72705,16.59867 -14.76095,0 -26.72706,-7.43148 -26.72706,-16.59867 0,-9.1672 11.96611,-16.59868 26.72706,-16.59868 14.76094,0 26.72705,7.43148 26.72705,16.59868 z" id="path4420" inkscape:connector-curvature="0" sodipodi:cx="209.44666" sodipodi:cy="130.98415" sodipodi:rx="26.727053" sodipodi:ry="16.598675" sodipodi:type="arc" transform="matrix(0.08864918,0.99606291,-0.99606291,0.08864918,321.34782,-89.249537)"/>
        <path style="fill:#000000;fill-opacity:1;stroke:none;display:inline" d="m 231.47876,130.80782 c 0,5.32317 -9.24414,9.63845 -20.64737,9.63845 -11.40323,0 -20.64737,-4.31528 -20.64737,-9.63845 0,-5.32318 9.24414,-9.63846 20.64737,-9.63846 11.40323,0 20.64737,4.31528 20.64737,9.63846 z" id="path4722" inkscape:connector-curvature="0" sodipodi:cx="210.83139" sodipodi:cy="130.80782" sodipodi:rx="20.647371" sodipodi:ry="9.6384573" sodipodi:type="arc" transform="matrix(0.06612655,0.99781124,-0.99781124,0.06612655,327.7574,-88.731072)"/>
        <path style="fill:#ffffff;fill-opacity:1;stroke:none;display:inline" d="m 213.85163,117.9008 c 0,3.52123 -3.49789,6.37576 -7.81275,6.37576 -4.31486,0 -7.81275,-2.85453 -7.81275,-6.37576 0,-3.52123 3.49789,-6.37575 7.81275,-6.37575 4.31486,0 7.81275,2.85452 7.81275,6.37575 z" id="path5032" inkscape:connector-curvature="0" sodipodi:nodetypes="cccccc" sodipodi:cx="206.03888" sodipodi:cy="117.9008" sodipodi:rx="7.8127489" sodipodi:ry="6.3757548" sodipodi:type="arc" transform="matrix(0.51731872,0.85579281,-0.85579281,0.51731872,200.34977,-119.41808)"/>
        <path transform="matrix(0.59921703,0.80058663,-0.80058663,0.59921703,183.64701,-107.5283)" sodipodi:type="arc" sodipodi:ry="2.652118" sodipodi:rx="3.3490036" sodipodi:cy="129.65849" sodipodi:cx="199.22043" inkscape:connector-curvature="0" id="path5190" d="m 202.56943,129.65849 c 0,1.46473 -1.4994,2.65212 -3.349,2.65212 -1.84961,0 -3.34901,-1.18739 -3.34901,-2.65212 0,-1.46472 1.4994,-2.65211 3.34901,-2.65211 1.8496,0 3.349,1.18739 3.349,2.65211 z" style="fill:#ffffff;fill-opacity:1;stroke:none;display:inline"/>
      </g>
    </g>
    <path style="fill:#f9ba61;fill-opacity:1;stroke:url(#linearGradient5932);stroke-width:4;stroke-linecap:butt;stroke-linejoin:miter;stroke-miterlimit:10;stroke-opacity:1;stroke-dasharray:none;display:inline" d="m 185.14363,181.86212 c -34.01976,50.25165 5.65372,98.16722 39.27813,125.10173 -11.25668,-21.0125 -23.88255,-45.46965 -27.85806,-69.21258 5.70405,10.9756 17.96534,22.84552 27.33896,27.85806 -6.54089,-12.91345 -14.90846,-30.18118 -18.68739,-47.23758 11.89415,8.79297 28.17332,19.68724 42.73877,21.80196 -4.6445,-4.854 -10.04832,-9.57024 -13.32343,-14.8807" id="path3790" inkscape:connector-curvature="0" sodipodi:nodetypes="ccccccc"/>
    <path style="fill:#e84958;fill-opacity:1;stroke:none" d="m 297.59375,40.21875 -9.1875,7.9375 -1.3125,6.03125 -74,-8.15625 C 212.29825,46.11964 203.5625,43.125 203.5625,43.125 l -8.75,6.53125 -16.875,22.5625 -4.6875,23.5 3.09375,14.40625 2.5625,11.125 -0.53125,10.4375 -0.0937,24.84375 3.09375,16.4375 8.65625,19.71875 13.34375,16.96875 13.34375,8.65625 14.34375,6.625 13.15625,1.6875 14.75,-1.5 26,-11.6875 10.96875,-9.78125 15,-23.71875 7,-23.9375 0.625,-29.09375 0.4375,-5.375 5.28125,-13.25 L 325.8125,94.9375 325.1875,81.75 320.59375,67.4375 308.375,46.65625 297.59375,40.21875 z m -9.3125,53.4375 c 0.31649,-0.01582 0.61839,-0.01431 0.9375,0 10.21164,0.457861 17.79586,16.3249 16.9375,35.46875 -0.33488,7.46886 -1.88422,14.34328 -4.28125,19.90625 -8.64917,-4.16605 -18.31086,-6.59755 -30.9375,-3.96875 -1.37047,-5.20226 -2.03572,-11.22128 -1.75,-17.59375 0.83153,-18.5456 9.28267,-33.322152 19.09375,-33.8125 z m -84.875,4.28125 c 9.79283,0.122801 18.63627,13.69921 19.96875,31.0625 0.50566,6.58911 -0.16649,12.82835 -1.6875,18.09375 -9.37071,0.42462 -18.31388,3.08045 -26.625,9.15625 -4.49794,-5.643 -7.76304,-14.39588 -8.53125,-24.40625 -1.37547,-17.9234 5.77115,-33.09482 15.9375,-33.875 0.3177,-0.02438 0.6216,-0.03521 0.9375,-0.03125 z" id="path5979" inkscape:connector-curvature="0"/>
    <path style="fill:none;stroke:url(#linearGradient5932);stroke-width:2;stroke-linecap:butt;stroke-linejoin:miter;stroke-miterlimit:4;stroke-opacity:1;stroke-dasharray:none;display:inline" d="M 214.21291,257.82292 C 202.03512,237.60294 195.67108,217.07698 192.23792,196.39676" id="path3792" inkscape:connector-curvature="0" sodipodi:nodetypes="cc"/>
    <path style="fill:url(#linearGradient5841);fill-opacity:1;stroke:none;display:inline" d="m 307.83687,71.942796 c 5.8159,12.299072 6.1374,24.888967 3.18114,36.216104 0.29063,-11.833739 -1.2375,-24.374376 -3.18114,-36.216104 z" id="path3850" inkscape:connector-curvature="0" sodipodi:nodetypes="ccc"/>
    <path style="fill:url(#linearGradient5841);fill-opacity:1;stroke:none;display:inline" d="m 181.0063,124.01288 c -17.50468,-44.878249 16.44352,-79.1191 25.93928,-78.153461 7.61128,0.774003 13.50317,25.741432 14.53465,36.855694 3.40874,-12.964429 -4.86607,-40.932808 -14.53465,-41.873606 -16.4425,-1.599931 -50.92738,49.244836 -25.93928,83.171373 z" id="path3852" inkscape:connector-curvature="0" sodipodi:nodetypes="cscsc"/>
    <path style="fill:url(#linearGradient5841);fill-opacity:1;stroke:none;display:inline" d="m 230.20347,145.69855 c 7.50779,-1.59451 19.84726,-1.97722 27.95246,-1.3087 -6.40775,-2.3148 -18.39405,-4.0847 -27.95246,1.3087 z" id="path3856" inkscape:connector-curvature="0" sodipodi:nodetypes="ccc"/>
    <path style="fill:url(#linearGradient5841);fill-opacity:1;stroke:none;display:inline" d="m 187.99865,105.29571 c -1.36064,-10.010068 -3.13817,-19.995614 3.11456,-30.453527 -2.57307,9.997687 -2.78022,20.231967 -3.11456,30.453527 z" id="path3854" inkscape:connector-curvature="0" sodipodi:nodetypes="ccc"/>
    <path style="font-size:medium;font-style:normal;font-variant:normal;font-weight:normal;font-stretch:normal;text-indent:0;text-align:start;text-decoration:none;line-height:normal;letter-spacing:normal;word-spacing:normal;text-transform:none;direction:ltr;block-progression:tb;writing-mode:lr-tb;text-anchor:start;baseline-shift:baseline;color:#000000;fill:url(#linearGradient5841);fill-opacity:1;stroke:none;stroke-width:4;marker:none;visibility:visible;display:inline;overflow:visible;enable-background:accumulate;font-family:Sans;-inkscape-font-specification:Sans" d="m 177.34375,114.375 c -5.1371,38.01973 1.87709,66.5377 15.34375,85.59375 13.46666,19.05605 33.37372,28.55699 53.4375,28.625 40.12756,0.13602 80.60756,-37.50591 73.46875,-108.53125 l -3.47479,6.87537 c 4.0017,65.10135 -33.5495,97.77942 -69.99396,97.65588 -18.81617,-0.0638 -37.42727,-8.88109 -50.1875,-26.9375 -11.83163,-16.74239 -18.65322,-41.53125 -15.56809,-74.76799 z" id="path3869" inkscape:connector-curvature="0" sodipodi:nodetypes="cssccsscc"/>
    <path style="fill:url(#linearGradient5841);fill-opacity:1;stroke:none;display:inline" d="m 268.63129,145.439 c 13.40477,-0.2412 27.63158,-0.76688 36.68267,7.00778 -4.70082,-10.51945 -23.62255,-11.97415 -36.68267,-7.00778 z" id="path3871" inkscape:connector-curvature="0" sodipodi:nodetypes="ccc"/>
    <path style="fill:url(#linearGradient5841);fill-opacity:1;stroke:none;display:inline" d="m 190.86864,160.40307 c 6.00802,-10.63557 16.27034,-16.07071 35.60435,-13.33633 -17.73485,1.76728 -27.55381,6.7913 -35.60435,13.33633 z" id="path3873" inkscape:connector-curvature="0" sodipodi:nodetypes="ccc"/>
    <path style="fill:url(#linearGradient5841);fill-opacity:1;stroke:none;display:inline" d="m 234.91525,187.9322 c 12.57075,-8.46905 25.27947,-3.7952 38.05138,5.01642 -9.44404,-11.33224 -25.74476,-18.3752 -38.05138,-5.01642 z" id="path3875" inkscape:connector-curvature="0" sodipodi:nodetypes="ccc"/>
    <path style="fill:url(#linearGradient5841);fill-opacity:1;stroke:none;display:inline" d="m 227.02357,151.59375 c -2.30338,10.74628 4.01161,11.26299 7.76933,7.95286 -4.6181,-0.49975 -6.10003,-3.12037 -7.76933,-7.95286 z" id="path3877" inkscape:connector-curvature="0" sodipodi:nodetypes="ccc"/>
    <path style="fill:url(#linearGradient5841);fill-opacity:1;stroke:none;display:inline" d="m 262.32203,150.61494 c -0.17693,4.93312 -3.13003,8.48093 -7.8305,9.54343 8.82089,3.1184 10.18719,-2.65743 7.8305,-9.54343 z" id="path3879" inkscape:connector-curvature="0" sodipodi:nodetypes="ccc"/>
    <path style="fill:#ffffff;fill-opacity:1;stroke:none;display:inline" d="m 314.75007,148.32278 c 0,1.77202 -2.28546,3.20851 -5.10471,3.20851 -2.81926,0 -5.10472,-1.43649 -5.10472,-3.20851 0,-1.77201 2.28546,-3.20851 5.10472,-3.20851 2.81925,0 5.10471,1.4365 5.10471,3.20851 z" id="path3881" inkscape:connector-curvature="0" sodipodi:cx="309.64536" sodipodi:cy="148.32278" sodipodi:rx="5.1047192" sodipodi:ry="3.2085099" sodipodi:type="arc" transform="matrix(0.42958023,-0.90548286,0.9205569,0.4225459,40.455328,365.1717)"/>
    <path transform="matrix(0.42173148,-0.94458622,0.90373764,0.44079358,37.672182,384.69792)" sodipodi:type="arc" sodipodi:ry="3.2085099" sodipodi:rx="5.1047192" sodipodi:cy="148.32278" sodipodi:cx="309.64536" inkscape:connector-curvature="0" id="path3999" d="m 314.75007,148.32278 c 0,1.77202 -2.28546,3.20851 -5.10471,3.20851 -2.81926,0 -5.10472,-1.43649 -5.10472,-3.20851 0,-1.77201 2.28546,-3.20851 5.10472,-3.20851 2.81925,0 5.10471,1.4365 5.10471,3.20851 z" style="fill:#ffffff;fill-opacity:1;stroke:none;display:inline"/>
    <path style="fill:#ffffff;fill-opacity:1;stroke:none;display:inline" d="m 314.75007,148.32278 c 0,1.77202 -2.28546,3.20851 -5.10471,3.20851 -2.81926,0 -5.10472,-1.43649 -5.10472,-3.20851 0,-1.77201 2.28546,-3.20851 5.10472,-3.20851 2.81925,0 5.10471,1.4365 5.10471,3.20851 z" id="path4001" inkscape:connector-curvature="0" sodipodi:cx="309.64536" sodipodi:cy="148.32278" sodipodi:rx="5.1047192" sodipodi:ry="3.2085099" sodipodi:type="arc" transform="matrix(0.47309469,-0.67163258,0.62943426,0.45252863,69.151998,302.99611)"/>
    <path transform="matrix(0.45021778,0.83579216,-0.79516423,0.4732211,226.12026,-76.556886)" sodipodi:type="arc" sodipodi:ry="3.4965844" sodipodi:rx="4.9203701" sodipodi:cy="154.01831" sodipodi:cx="188.19612" inkscape:connector-curvature="0" id="path4003" d="m 193.11649,154.01831 c 0,1.93111 -2.20292,3.49658 -4.92037,3.49658 -2.71744,0 -4.92037,-1.56547 -4.92037,-3.49658 0,-1.93111 2.20293,-3.49658 4.92037,-3.49658 2.71745,0 4.92037,1.56547 4.92037,3.49658 z" style="fill:#ffffff;fill-opacity:1;stroke:none;display:inline"/>
    <path style="fill:#ffffff;fill-opacity:1;stroke:none;display:inline" d="m 193.11649,154.01831 c 0,1.93111 -2.20292,3.49658 -4.92037,3.49658 -2.71744,0 -4.92037,-1.56547 -4.92037,-3.49658 0,-1.93111 2.20293,-3.49658 4.92037,-3.49658 2.71745,0 4.92037,1.56547 4.92037,3.49658 z" id="path4127" inkscape:connector-curvature="0" sodipodi:cx="188.19612" sodipodi:cy="154.01831" sodipodi:rx="4.9203701" sodipodi:ry="3.4965844" sodipodi:type="arc" transform="matrix(0.46042287,0.85674757,-0.81318823,0.48508594,226.39456,-71.316363)"/>
    <path transform="matrix(0.36358099,0.64873361,-0.50819766,0.43226385,206.45502,-22.901619)" sodipodi:type="arc" sodipodi:ry="3.4965844" sodipodi:rx="4.9203701" sodipodi:cy="154.01831" sodipodi:cx="188.19612" inkscape:connector-curvature="0" id="path4129" d="m 193.11649,154.01831 c 0,1.93111 -2.20292,3.49658 -4.92037,3.49658 -2.71744,0 -4.92037,-1.56547 -4.92037,-3.49658 0,-1.93111 2.20293,-3.49658 4.92037,-3.49658 2.71745,0 4.92037,1.56547 4.92037,3.49658 z" style="fill:#ffffff;fill-opacity:1;stroke:none;display:inline"/>
    <path style="fill:#f9ba61;fill-opacity:1;stroke:url(#linearGradient5932);stroke-width:4;stroke-linecap:butt;stroke-linejoin:miter;stroke-miterlimit:10;stroke-opacity:1;stroke-dasharray:none;display:inline" d="m 285.15579,77.351139 c -22.60039,4.134715 -37.77498,15.314429 -42.3927,36.509631 -25.5784,-3.16878 -49.9174,-40.718985 -22.14802,-58.311591 -10.60236,-2.103347 -19.30773,1.484261 -28.37715,3.979723 16.2172,-13.691835 33.33802,-25.161259 57.96552,-18.1683 -3.34944,-5.940051 -9.15113,-11.471394 -15.22677,-16.95708 20.0313,-0.789387 40.53087,15.442358 52.08247,26.473808" id="path4393" inkscape:connector-curvature="0" sodipodi:nodetypes="ccccccc"/>
    <path style="fill:none;stroke:url(#linearGradient5932);stroke-width:1px;stroke-linecap:butt;stroke-linejoin:miter;stroke-opacity:1;display:inline" d="m 251.58769,42.917885 c -15.34513,20.466281 -12.38256,45.400381 -7.95944,66.271035" id="path4395" inkscape:connector-curvature="0" sodipodi:nodetypes="cc"/>
    <path style="fill:none;stroke:url(#linearGradient5932);stroke-width:1px;stroke-linecap:butt;stroke-linejoin:miter;stroke-opacity:1;display:inline" d="m 221.82629,102.26766 c -0.5715,-22.975267 6.57066,-43.526242 22.14802,-61.426152" id="path4397" inkscape:connector-curvature="0" sodipodi:nodetypes="cc"/>
    <path style="fill:#000000;fill-opacity:1;stroke:none;display:inline" d="m 214.27186,103.9164 c -9.20899,-10.49837 -20.41593,-6.481182 -25.3846,7.71018 3.50979,-18.985381 18.28903,-21.225787 25.3846,-7.71018 z" id="path4401" inkscape:connector-curvature="0" sodipodi:nodetypes="ccc"/>
    <path style="fill:#e84958;fill-opacity:1;stroke:none" d="m 283.81498,82.283659 0.35356,-15.644737 2.38648,-10.16466 4.94975,4.596194 -3.44715,18.561553 z" id="path5981" inkscape:connector-curvature="0"/>
    <path style="fill:url(#linearGradient5841);fill-opacity:1;stroke:none;display:inline" d="m 315.66737,127.73517 c 21.62087,-48.070923 -6.96205,-83.060284 -16.63982,-84.667374 -9.71184,-1.612746 -15.56179,21.012685 -13.9481,45.025424 -7.38739,-12.420347 -1.22497,-51.749088 13.94809,-50.164195 13.66023,1.426872 45.41116,50.415951 16.63983,89.806145 z" id="path3848" inkscape:connector-curvature="0" sodipodi:nodetypes="cscsc"/>
    <path style="fill:#000000;fill-opacity:1;stroke:none;display:inline" d="m 278.96659,98.721909 c 14.6806,-18.028485 27.36908,2.331041 25.90185,14.617721 -2.41895,-10.40246 -11.00771,-27.504194 -25.90185,-14.617721 z" id="path4399" inkscape:connector-curvature="0" sodipodi:nodetypes="ccc"/>
  </g>
</svg>